<svg xmlns="http://www.w3.org/2000/svg" viewBox="0 0 640 520" width="640" height="520"><rect width="640" height="520" fill="white"/><path d="M 462 136 C 480 142 498 172 508 204 C 511 212 511 220 507 226 C 501 234 490 234 485 227 C 478 219 473 210 470 202 C 464 197 457 194 450 194 C 443 216 439 240 436 262 C 424 292 412 312 400 330 C 392 342 376 348 354 350 C 300 356 230 354 178 348 C 148 344 118 332 110 306 C 104 282 112 260 130 252 C 190 240 280 234 362 228 C 404 198 436 172 462 136 Z" fill="none" stroke="#141414" stroke-width="1.9" stroke-linecap="round" stroke-linejoin="round" /><clipPath id="bodyclip"><path d="M 462 136 C 480 142 498 172 508 204 C 511 212 511 220 507 226 C 501 234 490 234 485 227 C 478 219 473 210 470 202 C 464 197 457 194 450 194 C 443 216 439 240 436 262 C 424 292 412 312 400 330 C 392 342 376 348 354 350 C 300 356 230 354 178 348 C 148 344 118 332 110 306 C 104 282 112 260 130 252 C 190 240 280 234 362 228 C 404 198 436 172 462 136 Z"/></clipPath><g clip-path="url(#bodyclip)"><path d="M 89.9 148.2 Q 97.9 136.4 105.9 148.2 M 109.9 148.0 Q 117.9 137.3 125.9 148.0 M 129.1 148.0 Q 137.1 137.1 145.1 148.0 M 150.9 146.8 Q 158.9 136.9 166.9 146.8 M 168.8 148.9 Q 176.8 137.8 184.8 148.9 M 188.6 149.4 Q 196.6 137.6 204.6 149.4 M 210.5 148.3 Q 218.5 138.9 226.5 148.3 M 228.5 148.1 Q 236.5 138.9 244.5 148.1 M 249.1 147.2 Q 257.1 138.1 265.1 147.2 M 269.9 147.8 Q 277.9 136.3 285.9 147.8 M 290.1 148.4 Q 298.1 137.9 306.1 148.4 M 310.5 147.9 Q 318.5 138.0 326.5 147.9 M 331.5 149.5 Q 339.5 138.0 347.5 149.5 M 350.6 147.4 Q 358.6 137.8 366.6 147.4 M 369.4 146.7 Q 377.4 135.4 385.4 146.7 M 389.7 149.0 Q 397.7 138.9 405.7 149.0 M 411.4 149.0 Q 419.4 140.0 427.4 149.0 M 429.1 149.2 Q 437.1 138.8 445.1 149.2 M 451.4 147.7 Q 459.4 138.5 467.4 147.7 M 470.4 148.8 Q 478.4 139.0 486.4 148.8 M 98.8 162.5 Q 106.8 150.6 114.8 162.5 M 120.8 161.9 Q 128.8 152.1 136.8 161.9 M 138.8 161.7 Q 146.8 150.3 154.8 161.7 M 159.0 163.2 Q 167.0 152.8 175.0 163.2 M 179.1 163.7 Q 187.1 154.3 195.1 163.7 M 200.4 161.8 Q 208.4 151.6 216.4 161.8 M 219.1 162.3 Q 227.1 150.4 235.1 162.3 M 240.9 162.4 Q 248.9 150.8 256.9 162.4 M 259.1 162.7 Q 267.1 151.1 275.1 162.7 M 280.4 161.8 Q 288.4 149.8 296.4 161.8 M 299.1 162.3 Q 307.1 151.0 315.1 162.3 M 319.5 162.4 Q 327.5 153.2 335.5 162.4 M 338.8 163.2 Q 346.8 153.5 354.8 163.2 M 360.3 162.6 Q 368.3 152.3 376.3 162.6 M 381.4 163.0 Q 389.4 152.2 397.4 163.0 M 401.1 162.0 Q 409.1 152.6 417.1 162.0 M 421.2 164.0 Q 429.2 154.2 437.2 164.0 M 439.1 163.7 Q 447.1 151.9 455.1 163.7 M 459.1 164.4 Q 467.1 152.7 475.1 164.4 M 90.3 177.8 Q 98.3 168.5 106.3 177.8 M 108.6 179.4 Q 116.6 169.7 124.6 179.4 M 130.6 177.3 Q 138.6 165.8 146.6 177.3 M 150.3 177.4 Q 158.3 167.9 166.3 177.4 M 170.7 176.7 Q 178.7 167.0 186.7 176.7 M 190.2 179.1 Q 198.2 168.2 206.2 179.1 M 209.3 179.3 Q 217.3 169.6 225.3 179.3 M 228.5 177.3 Q 236.5 167.0 244.5 177.3 M 248.7 177.0 Q 256.7 166.9 264.7 177.0 M 270.2 176.9 Q 278.2 166.8 286.2 176.9 M 291.2 179.4 Q 299.2 168.5 307.2 179.4 M 310.6 178.3 Q 318.6 168.8 326.6 178.3 M 328.6 176.6 Q 336.6 164.8 344.6 176.6 M 350.6 179.4 Q 358.6 170.3 366.6 179.4 M 370.4 177.9 Q 378.4 166.8 386.4 177.9 M 389.5 179.5 Q 397.5 170.3 405.5 179.5 M 410.1 178.7 Q 418.1 167.0 426.1 178.7 M 430.7 178.6 Q 438.7 167.2 446.7 178.6 M 451.2 177.6 Q 459.2 166.5 467.2 177.6 M 471.2 179.1 Q 479.2 168.9 487.2 179.1 M 100.9 194.1 Q 108.9 183.4 116.9 194.1 M 120.4 192.6 Q 128.4 181.9 136.4 192.6 M 140.3 191.7 Q 148.3 180.8 156.3 191.7 M 161.5 194.1 Q 169.5 183.0 177.5 194.1 M 179.7 193.7 Q 187.7 183.0 195.7 193.7 M 199.8 194.0 Q 207.8 184.8 215.8 194.0 M 220.8 191.6 Q 228.8 180.8 236.8 191.6 M 239.9 192.2 Q 247.9 181.1 255.9 192.2 M 260.0 193.3 Q 268.0 181.6 276.0 193.3 M 279.3 191.5 Q 287.3 181.6 295.3 191.5 M 300.5 192.1 Q 308.5 182.6 316.5 192.1 M 321.2 193.5 Q 329.2 183.2 337.2 193.5 M 341.2 192.5 Q 349.2 181.5 357.2 192.5 M 359.1 192.8 Q 367.1 181.4 375.1 192.8 M 381.2 194.1 Q 389.2 184.0 397.2 194.1 M 400.2 192.4 Q 408.2 183.0 416.2 192.4 M 420.0 194.0 Q 428.0 182.5 436.0 194.0 M 440.6 194.4 Q 448.6 184.5 456.6 194.4 M 459.0 192.9 Q 467.0 183.0 475.0 192.9 M 89.1 207.7 Q 97.1 196.9 105.1 207.7 M 110.0 207.4 Q 118.0 195.9 126.0 207.4 M 131.4 207.9 Q 139.4 198.6 147.4 207.9 M 148.6 209.1 Q 156.6 200.0 164.6 209.1 M 170.6 208.2 Q 178.6 198.3 186.6 208.2 M 190.9 206.6 Q 198.9 197.1 206.9 206.6 M 209.9 206.6 Q 217.9 195.1 225.9 206.6 M 229.2 206.9 Q 237.2 197.8 245.2 206.9 M 250.4 207.8 Q 258.4 196.9 266.4 207.8 M 270.5 208.9 Q 278.5 197.0 286.5 208.9 M 290.6 207.1 Q 298.6 196.7 306.6 207.1 M 309.0 206.5 Q 317.0 196.1 325.0 206.5 M 330.6 207.0 Q 338.6 197.2 346.6 207.0 M 349.5 208.6 Q 357.5 198.0 365.5 208.6 M 370.3 208.8 Q 378.3 198.6 386.3 208.8 M 390.9 209.2 Q 398.9 200.0 406.9 209.2 M 411.3 208.7 Q 419.3 199.3 427.3 208.7 M 429.9 208.4 Q 437.9 196.6 445.9 208.4 M 449.6 208.2 Q 457.6 196.6 465.6 208.2 M 470.9 209.3 Q 478.9 198.9 486.9 209.3 M 100.5 222.1 Q 108.5 210.9 116.5 222.1 M 121.0 223.4 Q 129.0 212.3 137.0 223.4 M 139.1 224.2 Q 147.1 212.3 155.1 224.2 M 161.4 223.1 Q 169.4 211.7 177.4 223.1 M 179.5 224.2 Q 187.5 212.7 195.5 224.2 M 199.5 221.7 Q 207.5 211.4 215.5 221.7 M 220.2 223.8 Q 228.2 213.3 236.2 223.8 M 238.6 223.9 Q 246.6 214.7 254.6 223.9 M 260.9 222.0 Q 268.9 212.0 276.9 222.0 M 280.9 221.9 Q 288.9 212.5 296.9 221.9 M 300.0 223.7 Q 308.0 212.2 316.0 223.7 M 320.6 224.3 Q 328.6 213.9 336.6 224.3 M 341.3 221.8 Q 349.3 212.1 357.3 221.8 M 360.1 222.4 Q 368.1 211.2 376.1 222.4 M 380.4 223.1 Q 388.4 211.5 396.4 223.1 M 400.2 222.4 Q 408.2 212.3 416.2 222.4 M 421.0 224.2 Q 429.0 214.6 437.0 224.2 M 441.1 224.4 Q 449.1 213.8 457.1 224.4 M 460.2 222.1 Q 468.2 211.5 476.2 222.1 M 90.0 238.3 Q 98.0 229.2 106.0 238.3 M 111.4 238.0 Q 119.4 227.8 127.4 238.0 M 130.9 238.2 Q 138.9 227.7 146.9 238.2 M 150.6 236.7 Q 158.6 226.1 166.6 236.7 M 169.7 239.4 Q 177.7 227.6 185.7 239.4 M 189.3 237.9 Q 197.3 228.5 205.3 237.9 M 209.8 238.9 Q 217.8 227.2 225.8 238.9 M 229.9 237.5 Q 237.9 227.9 245.9 237.5 M 250.4 239.3 Q 258.4 229.9 266.4 239.3 M 270.8 236.6 Q 278.8 227.0 286.8 236.6 M 289.2 238.6 Q 297.2 228.6 305.2 238.6 M 309.6 238.4 Q 317.6 229.0 325.6 238.4 M 330.7 236.9 Q 338.7 226.3 346.7 236.9 M 349.3 237.1 Q 357.3 226.5 365.3 237.1 M 369.8 237.6 Q 377.8 227.4 385.8 237.6 M 390.1 237.0 Q 398.1 227.4 406.1 237.0 M 410.4 238.4 Q 418.4 227.8 426.4 238.4 M 431.1 238.3 Q 439.1 226.8 447.1 238.3 M 449.2 238.7 Q 457.2 227.3 465.2 238.7 M 471.2 237.4 Q 479.2 227.5 487.2 237.4 M 101.3 252.2 Q 109.3 240.2 117.3 252.2 M 121.2 251.9 Q 129.2 242.2 137.2 251.9 M 140.7 252.3 Q 148.7 243.0 156.7 252.3 M 161.0 252.8 Q 169.0 241.4 177.0 252.8 M 178.9 252.7 Q 186.9 241.7 194.9 252.7 M 198.6 252.1 Q 206.6 241.1 214.6 252.1 M 221.2 254.4 Q 229.2 245.1 237.2 254.4 M 240.0 253.8 Q 248.0 243.3 256.0 253.8 M 260.6 252.1 Q 268.6 242.9 276.6 252.1 M 278.8 251.6 Q 286.8 241.0 294.8 251.6 M 300.0 253.2 Q 308.0 243.8 316.0 253.2 M 319.1 252.1 Q 327.1 240.6 335.1 252.1 M 341.5 254.3 Q 349.5 245.0 357.5 254.3 M 358.7 254.4 Q 366.7 244.0 374.7 254.4 M 380.8 252.5 Q 388.8 242.1 396.8 252.5 M 400.0 252.8 Q 408.0 242.0 416.0 252.8 M 418.5 253.6 Q 426.5 242.1 434.5 253.6 M 439.0 252.9 Q 447.0 241.6 455.0 252.9 M 459.7 252.1 Q 467.7 242.6 475.7 252.1 M 90.0 266.5 Q 98.0 254.9 106.0 266.5 M 110.9 268.6 Q 118.9 257.0 126.9 268.6 M 130.4 267.7 Q 138.4 256.9 146.4 267.7 M 150.0 269.4 Q 158.0 258.0 166.0 269.4 M 169.3 269.2 Q 177.3 258.0 185.3 269.2 M 190.8 268.9 Q 198.8 258.7 206.8 268.9 M 211.2 269.1 Q 219.2 258.1 227.2 269.1 M 230.8 268.8 Q 238.8 258.6 246.8 268.8 M 250.7 266.7 Q 258.7 256.7 266.7 266.7 M 269.9 266.5 Q 277.9 256.5 285.9 266.5 M 290.4 268.4 Q 298.4 258.7 306.4 268.4 M 311.3 268.5 Q 319.3 258.5 327.3 268.5 M 330.5 268.2 Q 338.5 257.6 346.5 268.2 M 349.7 269.5 Q 357.7 258.6 365.7 269.5 M 370.6 268.8 Q 378.6 256.8 386.6 268.8 M 388.6 268.3 Q 396.6 257.1 404.6 268.3 M 409.3 267.7 Q 417.3 258.6 425.3 267.7 M 429.1 267.6 Q 437.1 258.3 445.1 267.6 M 449.3 269.2 Q 457.3 258.6 465.3 269.2 M 470.0 269.4 Q 478.0 258.7 486.0 269.4 M 101.5 283.4 Q 109.5 272.0 117.5 283.4 M 118.7 283.3 Q 126.7 272.0 134.7 283.3 M 138.6 284.3 Q 146.6 274.8 154.6 284.3 M 159.9 282.0 Q 167.9 271.5 175.9 282.0 M 180.3 281.7 Q 188.3 269.8 196.3 281.7 M 199.8 283.1 Q 207.8 272.3 215.8 283.1 M 219.6 282.4 Q 227.6 271.4 235.6 282.4 M 240.2 282.4 Q 248.2 271.2 256.2 282.4 M 259.4 281.5 Q 267.4 271.8 275.4 281.5 M 278.6 282.0 Q 286.6 270.7 294.6 282.0 M 299.7 284.2 Q 307.7 272.9 315.7 284.2 M 318.7 284.5 Q 326.7 272.6 334.7 284.5 M 338.7 284.2 Q 346.7 273.9 354.7 284.2 M 359.9 284.4 Q 367.9 274.7 375.9 284.4 M 380.1 284.3 Q 388.1 273.1 396.1 284.3 M 399.9 284.4 Q 407.9 273.0 415.9 284.4 M 420.3 281.8 Q 428.3 271.0 436.3 281.8 M 439.9 282.1 Q 447.9 273.0 455.9 282.1 M 460.1 281.9 Q 468.1 271.5 476.1 281.9 M 90.5 297.9 Q 98.5 288.1 106.5 297.9 M 110.2 297.8 Q 118.2 286.4 126.2 297.8 M 130.1 299.5 Q 138.1 287.6 146.1 299.5 M 150.7 297.2 Q 158.7 287.9 166.7 297.2 M 171.2 298.9 Q 179.2 288.0 187.2 298.9 M 189.6 297.3 Q 197.6 286.3 205.6 297.3 M 210.2 298.3 Q 218.2 287.4 226.2 298.3 M 230.8 297.1 Q 238.8 287.3 246.8 297.1 M 251.4 299.2 Q 259.4 287.6 267.4 299.2 M 268.6 296.7 Q 276.6 286.9 284.6 296.7 M 289.8 298.4 Q 297.8 289.1 305.8 298.4 M 310.1 296.7 Q 318.1 287.5 326.1 296.7 M 330.5 298.2 Q 338.5 287.3 346.5 298.2 M 349.6 297.9 Q 357.6 288.3 365.6 297.9 M 369.5 298.7 Q 377.5 287.2 385.5 298.7 M 388.7 296.9 Q 396.7 285.4 404.7 296.9 M 410.4 298.8 Q 418.4 289.2 426.4 298.8 M 429.8 297.3 Q 437.8 285.8 445.8 297.3 M 449.6 298.5 Q 457.6 286.5 465.6 298.5 M 469.5 298.1 Q 477.5 286.9 485.5 298.1 M 101.3 312.8 Q 109.3 302.7 117.3 312.8 M 118.8 314.1 Q 126.8 304.9 134.8 314.1 M 138.7 313.2 Q 146.7 302.7 154.7 313.2 M 160.6 312.4 Q 168.6 301.1 176.6 312.4 M 178.7 312.1 Q 186.7 301.2 194.7 312.1 M 198.7 312.4 Q 206.7 301.2 214.7 312.4 M 220.6 312.3 Q 228.6 302.9 236.6 312.3 M 239.6 313.7 Q 247.6 303.6 255.6 313.7 M 258.9 313.6 Q 266.9 302.9 274.9 313.6 M 281.3 314.3 Q 289.3 302.6 297.3 314.3 M 299.8 313.9 Q 307.8 304.0 315.8 313.9 M 319.5 312.7 Q 327.5 300.9 335.5 312.7 M 341.2 312.2 Q 349.2 302.2 357.2 312.2 M 359.6 312.6 Q 367.6 302.4 375.6 312.6 M 379.7 312.1 Q 387.7 301.4 395.7 312.1 M 400.9 313.1 Q 408.9 301.6 416.9 313.1 M 420.2 312.0 Q 428.2 300.8 436.2 312.0 M 441.1 312.3 Q 449.1 303.3 457.1 312.3 M 460.0 313.1 Q 468.0 302.4 476.0 313.1 M 91.4 328.5 Q 99.4 317.0 107.4 328.5 M 108.7 328.1 Q 116.7 316.8 124.7 328.1 M 128.8 326.7 Q 136.8 315.5 144.8 326.7 M 151.2 326.8 Q 159.2 315.9 167.2 326.8 M 168.9 328.7 Q 176.9 317.8 184.9 328.7 M 189.2 327.2 Q 197.2 315.9 205.2 327.2 M 210.1 328.8 Q 218.1 318.6 226.1 328.8 M 229.5 329.4 Q 237.5 318.4 245.5 329.4 M 250.0 328.1 Q 258.0 316.9 266.0 328.1 M 270.6 329.2 Q 278.6 319.0 286.6 329.2 M 291.0 328.5 Q 299.0 316.9 307.0 328.5 M 310.9 329.0 Q 318.9 317.3 326.9 329.0 M 331.4 328.4 Q 339.4 317.8 347.4 328.4 M 350.6 328.9 Q 358.6 318.6 366.6 328.9 M 369.8 326.9 Q 377.8 315.7 385.8 326.9 M 391.5 327.6 Q 399.5 318.1 407.5 327.6 M 409.1 327.8 Q 417.1 317.9 425.1 327.8 M 431.4 326.7 Q 439.4 316.8 447.4 326.7 M 448.8 328.4 Q 456.8 317.1 464.8 328.4 M 469.0 326.7 Q 477.0 316.3 485.0 326.7 M 100.3 344.2 Q 108.3 335.1 116.3 344.2 M 118.8 342.1 Q 126.8 332.4 134.8 342.1 M 139.2 343.7 Q 147.2 332.9 155.2 343.7 M 159.2 342.1 Q 167.2 332.2 175.2 342.1 M 179.0 343.8 Q 187.0 333.8 195.0 343.8 M 200.1 344.0 Q 208.1 333.5 216.1 344.0 M 219.3 344.2 Q 227.3 332.4 235.3 344.2 M 239.5 343.1 Q 247.5 331.3 255.5 343.1 M 259.9 342.2 Q 267.9 333.0 275.9 342.2 M 281.3 343.9 Q 289.3 333.7 297.3 343.9 M 300.1 343.0 Q 308.1 333.2 316.1 343.0 M 321.5 343.5 Q 329.5 333.8 337.5 343.5 M 338.5 342.9 Q 346.5 332.8 354.5 342.9 M 360.9 343.6 Q 368.9 332.8 376.9 343.6 M 379.0 342.0 Q 387.0 332.0 395.0 342.0 M 399.3 344.1 Q 407.3 333.6 415.3 344.1 M 420.4 344.5 Q 428.4 334.7 436.4 344.5 M 440.1 342.0 Q 448.1 330.6 456.1 342.0 M 458.5 344.0 Q 466.5 332.4 474.5 344.0" fill="none" stroke="#141414" stroke-width="1.25" stroke-linecap="round"/></g><path d="M 114 264 Q 66 300 37 388" fill="none" stroke="#141414" stroke-width="1.4" stroke-linecap="round" stroke-linejoin="round" /><path d="M 111 272 Q 70 310 48 396" fill="none" stroke="#141414" stroke-width="1.4" stroke-linecap="round" stroke-linejoin="round" /><path d="M 110 280 Q 74 320 52 404" fill="none" stroke="#141414" stroke-width="1.4" stroke-linecap="round" stroke-linejoin="round" /><path d="M 112 288 Q 78 330 62 412" fill="none" stroke="#141414" stroke-width="1.4" stroke-linecap="round" stroke-linejoin="round" /><path d="M 113 296 Q 82 340 67 420" fill="none" stroke="#141414" stroke-width="1.4" stroke-linecap="round" stroke-linejoin="round" /><path d="M 111 304 Q 86 350 72 428" fill="none" stroke="#141414" stroke-width="1.4" stroke-linecap="round" stroke-linejoin="round" /><path d="M 374 219 Q 370 210 361 206" fill="none" stroke="#141414" stroke-width="1.3" stroke-linecap="round" stroke-linejoin="round" /><path d="M 386 210 Q 382 201 373 197" fill="none" stroke="#141414" stroke-width="1.3" stroke-linecap="round" stroke-linejoin="round" /><path d="M 397 202 Q 393 193 384 189" fill="none" stroke="#141414" stroke-width="1.3" stroke-linecap="round" stroke-linejoin="round" /><path d="M 408 193 Q 404 184 395 180" fill="none" stroke="#141414" stroke-width="1.3" stroke-linecap="round" stroke-linejoin="round" /><path d="M 418 184 Q 414 175 405 171" fill="none" stroke="#141414" stroke-width="1.3" stroke-linecap="round" stroke-linejoin="round" /><path d="M 428 175 Q 424 166 415 162" fill="none" stroke="#141414" stroke-width="1.3" stroke-linecap="round" stroke-linejoin="round" /><path d="M 437 166 Q 433 157 424 153" fill="none" stroke="#141414" stroke-width="1.3" stroke-linecap="round" stroke-linejoin="round" /><path d="M 446 157 Q 442 148 433 144" fill="none" stroke="#141414" stroke-width="1.3" stroke-linecap="round" stroke-linejoin="round" /><path d="M 454 147 Q 450 138 441 134" fill="none" stroke="#141414" stroke-width="1.3" stroke-linecap="round" stroke-linejoin="round" /><path d="M 392 336 C 390 368 397 400 393 438" fill="none" stroke="#141414" stroke-width="1.3" stroke-linecap="round" stroke-linejoin="round" /><path d="M 403 334 C 401 368 408 400 401 438" fill="none" stroke="#141414" stroke-width="1.3" stroke-linecap="round" stroke-linejoin="round" /><path d="M 390 438 L 404 438 L 401 448 L 394 448 Z" fill="white" stroke="#141414" stroke-width="1.4" stroke-linecap="round" stroke-linejoin="round" /><path d="M 368 342 C 366 374 373 406 369 448" fill="none" stroke="#141414" stroke-width="1.6" stroke-linecap="round" stroke-linejoin="round" /><path d="M 379 340 C 377 374 384 406 377 448" fill="none" stroke="#141414" stroke-width="1.6" stroke-linecap="round" stroke-linejoin="round" /><path d="M 366 448 L 380 448 L 377 458 L 370 458 Z" fill="white" stroke="#141414" stroke-width="1.4" stroke-linecap="round" stroke-linejoin="round" /><path d="M 170 344 C 168 376 164 408 171 442" fill="none" stroke="#141414" stroke-width="1.3" stroke-linecap="round" stroke-linejoin="round" /><path d="M 181 342 C 179 376 175 408 179 442" fill="none" stroke="#141414" stroke-width="1.3" stroke-linecap="round" stroke-linejoin="round" /><path d="M 168 442 L 182 442 L 179 452 L 172 452 Z" fill="white" stroke="#141414" stroke-width="1.4" stroke-linecap="round" stroke-linejoin="round" /><path d="M 142 348 C 140 380 136 412 143 452" fill="none" stroke="#141414" stroke-width="1.6" stroke-linecap="round" stroke-linejoin="round" /><path d="M 153 346 C 151 380 147 412 151 452" fill="none" stroke="#141414" stroke-width="1.6" stroke-linecap="round" stroke-linejoin="round" /><path d="M 140 452 L 154 452 L 151 462 L 144 462 Z" fill="white" stroke="#141414" stroke-width="1.4" stroke-linecap="round" stroke-linejoin="round" /><path d="M 462 136 C 480 142 498 172 508 204 C 511 212 511 220 507 226 C 501 234 490 234 485 227 C 478 219 473 210 470 202 C 464 197 457 194 450 194 C 450 176 452 154 457 143 C 458 140 460 138 462 136 Z" fill="white" stroke="#141414" stroke-width="1.8" stroke-linecap="round" stroke-linejoin="round" /><path d="M 461 135 L 462 113 L 472 131" fill="white" stroke="#141414" stroke-width="1.5" stroke-linecap="round" stroke-linejoin="round" /><path d="M 450 142 L 449 121 L 460 135" fill="white" stroke="#141414" stroke-width="1.5" stroke-linecap="round" stroke-linejoin="round" /><circle cx="471" cy="160" r="4.2" fill="none" stroke="#141414" stroke-width="1.4"/><circle cx="472" cy="161" r="1.5" fill="#141414"/><path d="M 497 216 Q 502 214 501 208" fill="none" stroke="#141414" stroke-width="1.2" stroke-linecap="round" stroke-linejoin="round" /><path d="M 504 228 L 491 232" fill="none" stroke="#141414" stroke-width="1.2" stroke-linecap="round" stroke-linejoin="round" /><path d="M 284 152 C 302 152 322 159 342 168 L 341 176 C 320 168 300 162 284 163 Z" fill="white" stroke="#141414" stroke-width="1.5" stroke-linecap="round" stroke-linejoin="round" /><circle cx="345" cy="172" r="4.3" fill="white" stroke="#141414" stroke-width="1.4"/><path d="M 246 240 C 240 214 244 186 254 162 C 260 146 268 134 278 128 C 276 116 280 104 290 99 C 298 95 308 98 312 106 C 315 109 318 112 320 115 C 324 117 326 121 323 124 C 320 126 317 128 314 130 C 316 142 312 154 303 160 C 297 160 292 155 290 148 C 286 162 280 176 275 192 C 271 208 268 222 267 236 Z" fill="white" stroke="#141414" stroke-width="1.7" stroke-linecap="round" stroke-linejoin="round" /><path d="M 288 138 C 306 134 328 139 350 148 L 352 157 C 328 150 306 148 290 150 Z" fill="white" stroke="#141414" stroke-width="1.5" stroke-linecap="round" stroke-linejoin="round" /><circle cx="355" cy="153" r="4.3" fill="white" stroke="#141414" stroke-width="1.4"/><path d="M 252 232 C 267 242 282 252 290 264 C 294 276 292 288 288 300 C 285 310 282 318 280 326 L 291 334 L 276 337 C 271 328 271 318 273 310 C 276 300 278 290 274 279 C 267 264 256 250 242 238 Z" fill="white" stroke="#141414" stroke-width="1.6" stroke-linecap="round" stroke-linejoin="round" /><circle cx="313" cy="111" r="1.5" fill="#141414"/><path d="M 308 106 Q 313 104 317 107" fill="none" stroke="#141414" stroke-width="1.1" stroke-linecap="round" stroke-linejoin="round" /><path d="M 296 116 Q 292 120 296 125" fill="none" stroke="#141414" stroke-width="1.1" stroke-linecap="round" stroke-linejoin="round" /><path d="M 286 100 Q 281 104 279 110 M 292 96 Q 287 97 283 102" fill="none" stroke="#141414" stroke-width="1.0" stroke-linecap="round" stroke-linejoin="round" /><path d="M 308 134 Q 305 143 301 151 M 301 136 Q 298 143 295 149" fill="none" stroke="#141414" stroke-width="1.0" stroke-linecap="round" stroke-linejoin="round" /><path d="M 246 220 Q 258 226 268 223 M 247 232 Q 258 236 267 233" fill="none" stroke="#141414" stroke-width="1.1" stroke-linecap="round" stroke-linejoin="round" /><path d="M 358 152 Q 424 196 487 222" fill="none" stroke="#141414" stroke-width="0.9" stroke-linecap="round" stroke-linejoin="round" /><path d="M 348 170 Q 417 206 482 227" fill="none" stroke="#141414" stroke-width="0.9" stroke-linecap="round" stroke-linejoin="round" /></svg>